<svg xmlns="http://www.w3.org/2000/svg" xmlns:xlink="http://www.w3.org/1999/xlink" viewBox="0,0,256,256" width="100px" height="100px" fill-rule="nonzero"><g fill="#9b844c" fill-rule="nonzero" stroke="none" stroke-width="1" stroke-linecap="butt" stroke-linejoin="miter" stroke-miterlimit="10" stroke-dasharray="" stroke-dashoffset="0" font-family="none" font-weight="none" font-size="none" text-anchor="none" style="mix-blend-mode: normal"><g transform="scale(5.12,5.12)"><path d="M24.84375,0c-0.49219,0.07813 -0.85156,0.50391 -0.84375,1v10h-11c-0.03125,0 -0.0625,0 -0.09375,0c-0.25,0.01953 -0.48437,0.12891 -0.65625,0.3125v0.03125c-0.02344,0.01953 -0.04297,0.03906 -0.0625,0.0625l-11.9375,12.90625c-0.27734,0.29297 -0.35156,0.72656 -0.1875,1.09375c0.16406,0.37109 0.53516,0.60156 0.9375,0.59375h10v11c-0.00781,0.28125 0.10547,0.55469 0.3125,0.75l13,12c0.29297,0.27734 0.72656,0.35156 1.09375,0.1875c0.37109,-0.16406 0.60156,-0.53516 0.59375,-0.9375v-10h11c0.28125,0.00781 0.55469,-0.10547 0.75,-0.3125l12,-13c0.27734,-0.29297 0.35156,-0.72656 0.1875,-1.09375c-0.16406,-0.37109 -0.53516,-0.60156 -0.9375,-0.59375h-10v-11c0.00781,-0.28125 -0.10547,-0.55469 -0.3125,-0.75l-13,-12c-0.22656,-0.21094 -0.53906,-0.30078 -0.84375,-0.25zM26,3.3125l10.5,9.6875l-9.25,9.25c-0.76953,-0.88672 -1.25,-2.03906 -1.25,-3.3125v-6.9375c0,-0.03125 0,-0.0625 0,-0.09375zM13,13.5l9.25,9.25c-0.88672,0.76953 -2.03906,1.25 -3.3125,1.25h-15.625zM25,22.5625c0.59766,0.99609 1.44141,1.83984 2.4375,2.4375c-0.99609,0.59766 -1.83984,1.44141 -2.4375,2.4375c-0.59766,-0.99609 -1.44141,-1.83984 -2.4375,-2.4375c0.99609,-0.59766 1.83984,-1.44141 2.4375,-2.4375zM31.0625,26h15.625l-9.6875,10.5l-9.25,-9.25c0.88672,-0.76953 2.03906,-1.25 3.3125,-1.25zM22.75,27.75c0.76953,0.88672 1.25,2.03906 1.25,3.3125v6.9375c0,0.03125 0,0.0625 0,0.09375v8.59375l-10.5,-9.6875z"></path></g></g></svg>