<svg xmlns="http://www.w3.org/2000/svg" xmlns:xlink="http://www.w3.org/1999/xlink" viewBox="0,0,256,256" width="96px" height="96px" fill-rule="nonzero"><g fill="#9b844c" fill-rule="nonzero" stroke="none" stroke-width="1" stroke-linecap="butt" stroke-linejoin="miter" stroke-miterlimit="10" stroke-dasharray="" stroke-dashoffset="0" font-family="none" font-weight="none" font-size="none" text-anchor="none" style="mix-blend-mode: normal"><g transform="scale(8,8)"><path d="M6.64453,3.00391c-0.29988,-0.01662 -0.59161,0.04691 -0.84961,0.19141c-0.505,0.284 -0.79492,0.82452 -0.79492,1.47852v22.7793c0,0.593 0.27623,1.10423 0.74023,1.36523c0.216,0.121 0.45327,0.18359 0.69727,0.18359c0.295,0 0.60058,-0.09058 0.89258,-0.26758c0.328,-0.199 18.80078,-11.4043 18.80078,-11.4043c0.562,-0.341 0.87619,-0.85606 0.86719,-1.41406c-0.008,-0.549 -0.32233,-1.03975 -0.86133,-1.34375c-0.055,-0.032 -0.47372,-0.28259 -1.13672,-0.68359v1.78906c-0.36032,0.21855 -1.43439,0.8698 -2,1.21289v-8.89062h-14v17.38281c-0.46572,0.28251 -1.76812,1.07223 -2,1.21289v-21.29102c0,0 0.42948,0.26031 1.14648,0.69531h3.85352c-2.57,-1.561 -4.45898,-2.70703 -4.45898,-2.70703c-0.2885,-0.175 -0.59661,-0.27244 -0.89648,-0.28906zM11,10h4v6l2,-2l2,2v-6h2v8.10352c-3.58043,2.17189 -6.77639,4.11089 -10,6.06641z"></path></g></g></svg>