<svg xmlns="http://www.w3.org/2000/svg" xmlns:xlink="http://www.w3.org/1999/xlink" viewBox="0,0,256,256" width="100px" height="100px" fill-rule="nonzero"><g fill="#9b844c" fill-rule="nonzero" stroke="none" stroke-width="1" stroke-linecap="butt" stroke-linejoin="miter" stroke-miterlimit="10" stroke-dasharray="" stroke-dashoffset="0" font-family="none" font-weight="none" font-size="none" text-anchor="none" style="mix-blend-mode: normal"><g transform="scale(5.12,5.12)"><path d="M8,4c-2.19733,0 -4,1.80267 -4,4v34c0,2.19733 1.80267,4 4,4h26.91406l0.29297,-0.29297l10.79297,-10.79297v-26.91406c0,-2.19733 -1.80267,-4 -4,-4zM8,6h34c1.11667,0 2,0.88333 2,2v25h-7c-2.19733,0 -4,1.80267 -4,4v7h-25c-1.11667,0 -2,-0.88333 -2,-2v-34c0,-1.11667 0.88333,-2 2,-2zM25,11c-4.66434,0 -8.51933,3.56852 -8.95898,8.12695v0.00195c-0.02672,0.28495 -0.04102,0.57601 -0.04102,0.87109c0,3.50716 2.05558,6.49202 4.99609,7.97461c0.00238,2.1281 0.00391,7.02539 0.00391,7.02539v1h2v2h4v-2h2v-1c0,0 0.00151,-4.89729 0.00391,-7.02539c2.94053,-1.48259 4.99609,-4.46745 4.99609,-7.97461c0,-4.95852 -4.04148,-9 -9,-9zM25,13c3.87748,0 7,3.12252 7,7c0,2.94539 -1.81198,5.4527 -4.37305,6.49023l-0.62305,0.25195v0.67383c-0.00102,0.59924 -0.00134,1.56641 -0.00195,2.58398h-4.00391c-0.00061,-1.01757 -0.00093,-1.98474 -0.00195,-2.58398v-0.67383l-0.62305,-0.25195c-2.56107,-1.03754 -4.37305,-3.54484 -4.37305,-6.49023c0,-0.22827 0.01204,-0.45528 0.0332,-0.68164c0.34235,-3.54957 3.31914,-6.31836 6.9668,-6.31836zM22.99805,32h4.00391c-0.00024,0.7148 -0.00194,1.6402 -0.00195,2h-4c-0.00001,-0.3598 -0.00171,-1.2852 -0.00195,-2zM37,35h6.08594l-8.08594,8.08594v-6.08594c0,-1.11667 0.88333,-2 2,-2z"></path></g></g></svg>